<svg width="40" height="35" viewBox="0 0 40 35" fill="none" xmlns="http://www.w3.org/2000/svg">
<path d="M18.6106 33.8446C18.8378 34.0799 19.1485 34.2119 19.4746 34.2141C19.8008 34.2164 20.1133 34.0888 20.3437 33.8567L36.0228 18.1908C42.5615 11.6592 38.0275 0.26434 28.794 0.199751C23.249 0.160963 20.676 4.21791 19.6792 4.97205C18.6882 4.20076 16.1884 0.111573 10.6321 0.0727058C1.42778 0.00832072 -3.32179 11.309 3.15386 17.9609L18.6106 33.8446Z" fill="#E95454"/>
<mask id="mask0" mask-type="alpha" maskUnits="userSpaceOnUse" x="0" y="0" width="40" height="35">
<path d="M18.6106 33.8446C18.8378 34.0799 19.1485 34.2119 19.4746 34.2141C19.8008 34.2164 20.1133 34.0888 20.3437 33.8567L36.0228 18.1908C42.5615 11.6592 38.0275 0.26434 28.794 0.199751C23.249 0.160963 20.676 4.21791 19.6792 4.97205C18.6882 4.20076 16.1884 0.111573 10.6321 0.0727058C1.42778 0.00832072 -3.32179 11.309 3.15386 17.9609L18.6106 33.8446Z" fill="#E95454"/>
</mask>
<g mask="url(#mask0)">
<path d="M19.4445 35.7973C19.4445 35.7973 28.8382 18.9222 20.2108 6.05074C14.4647 -2.52209 7.78908 -0.58532 5.16953 1.45467C-2.90695 6.7872 -0.499345 13.7649 1.71402 16.5871L18.3358 34.6669L19.4445 35.7973Z" fill="#FF6868"/>
</g>
</svg>
